<svg width="24" height="23" viewBox="0 0 24 23" fill="none" xmlns="http://www.w3.org/2000/svg">
<path fill-rule="evenodd" clip-rule="evenodd" d="M12 0.444336C5.61556 0.444336 0.444445 5.61545 0.444445 11.9999C0.444445 17.1132 3.75222 21.4321 8.34556 22.9632C8.92333 23.0643 9.14 22.7177 9.14 22.4143C9.14 22.1399 9.12556 21.2299 9.12556 20.2621C6.22222 20.7966 5.47111 19.5543 5.24 18.9043C5.11 18.5721 4.54667 17.5466 4.05556 17.2721C3.65111 17.0554 3.07333 16.521 4.04111 16.5066C4.95111 16.4921 5.60111 17.3443 5.81778 17.691C6.85778 19.4388 8.51889 18.9477 9.18333 18.6443C9.28445 17.8932 9.58778 17.3877 9.92 17.0988C7.34889 16.8099 4.66222 15.8132 4.66222 11.3932C4.66222 10.1366 5.11 9.09656 5.84667 8.28767C5.73111 7.99878 5.32667 6.81434 5.96222 5.22545C5.96222 5.22545 6.93 4.92211 9.14 6.40989C10.0644 6.14989 11.0467 6.01989 12.0289 6.01989C13.0111 6.01989 13.9933 6.14989 14.9178 6.40989C17.1278 4.90767 18.0956 5.22545 18.0956 5.22545C18.7311 6.81434 18.3267 7.99878 18.2111 8.28767C18.9478 9.09656 19.3956 10.1221 19.3956 11.3932C19.3956 15.8277 16.6944 16.8099 14.1233 17.0988C14.5422 17.4599 14.9033 18.1532 14.9033 19.2366C14.9033 20.7821 14.8889 22.0243 14.8889 22.4143C14.8889 22.7177 15.1056 23.0788 15.6833 22.9632C20.2478 21.4321 23.5556 17.0988 23.5556 11.9999C23.5556 5.61545 18.3844 0.444336 12 0.444336Z" fill="white"/>
</svg>
