<svg width="430" height="932" viewBox="0 0 430 932" fill="none" xmlns="http://www.w3.org/2000/svg">
<path fill-rule="evenodd" clip-rule="evenodd" d="M430 224.231C415.52 216.443 398.803 212 381 212C325.772 212 281 254.757 281 307.5C281 360.243 325.772 403 381 403C398.803 403 415.52 398.557 430 390.769V224.231Z" fill="#EADDFF"/>
<path fill-rule="evenodd" clip-rule="evenodd" d="M430 932V761.889C409.121 753.573 386.344 749 362.5 749C261.708 749 180 830.708 180 931.5C180 931.667 180 931.833 180.001 932H430Z" fill="#21005D"/>
<path fill-rule="evenodd" clip-rule="evenodd" d="M0 154.035C18.6693 167.806 42.0824 176 67.5 176C128.527 176 178 128.766 178 70.5C178 43.399 167.297 18.6848 149.707 0H0V154.035Z" fill="#EADDFF"/>
</svg>
