<svg width="430" height="740" viewBox="0 0 430 740" fill="none" xmlns="http://www.w3.org/2000/svg">
<circle cx="324" cy="670" r="70" fill="#EADDFF"/>
<circle cx="111.5" cy="50.5" r="50.5" fill="#EADDFF"/>
<path d="M0 464.191C22.7939 486.936 54.2546 501 89 501C158.588 501 215 444.588 215 375C215 305.412 158.588 249 89 249C54.2546 249 22.7939 263.064 0 285.809V464.191Z" fill="#6750A4" fill-opacity="0.9"/>
<path d="M430 252.244V496.756C396.601 533.75 348.265 557 294.5 557C193.708 557 112 475.292 112 374.5C112 273.708 193.708 192 294.5 192C348.265 192 396.601 215.25 430 252.244Z" fill="#21005D"/>
</svg>
